# xmcd CD database file
#
# Track frame offsets:
#	150
#	20475
#	40951
#
# Disc length: 646 seconds
#
# Revision: 0
# Processed by: cddbd v1.5.1PL2 Copyright (c) Steve Scherf et al.
# Submitted via: CDex 1.51
#
DISCID=1d028403
DTITLE=INSPi - この星の子守唄　
DYEAR=1900
DGENRE=JPop
TTITLE0=この星の子守唄
TTITLE1=この星の子守唄　Ｉｎｓｔｒｕｍｅｎｔａｌ
TTITLE2=この星の子守唄　TV-Version
EXTD=
EXTT0=
EXTT1=
EXTT2=
PLAYORDER=
